<svg id="图层_1" data-name="图层 1" xmlns="http://www.w3.org/2000/svg" viewBox="0 0 64 64"><defs><style>.cls-1{fill:#db0046;}.cls-2{fill:#d31935;}.cls-3{fill:#e2cb37;}.cls-4{fill:#cb3c29;}.cls-5{fill:#cda439;}.cls-6{fill:#c37137;}.cls-7{fill:none;stroke:#000;stroke-linecap:round;stroke-linejoin:round;stroke-width:4px;}</style></defs><title>画板 1 副本</title><path class="cls-1" d="M53.47,31.54q0,.48,0,1a19,19,0,0,1-.1,2L44,39.93V14.66A21.46,21.46,0,0,1,53.47,31.54Z"/><path class="cls-2" d="M44,39.93l9.4-5.43A21.46,21.46,0,0,1,44,50.34,22.93,22.93,0,0,1,41,52l-9-5.19Z"/><path class="cls-3" d="M44,14.66V26.07L32,19.15l-9.91-5.72a21.42,21.42,0,0,1,19.82,0A19.07,19.07,0,0,1,44,14.66Z"/><path class="cls-4" d="M32,46.85,41,52a21.55,21.55,0,0,1-18,0,22.93,22.93,0,0,1-3-1.7V39.93Z"/><path class="cls-5" d="M32,19.15,20,26.07l-9.47,5.47A21.46,21.46,0,0,1,20,14.66a19.07,19.07,0,0,1,2.09-1.23Z"/><path class="cls-6" d="M20,39.93V50.34A21.46,21.46,0,0,1,10.6,34.5a19,19,0,0,1-.1-2q0-.48,0-1L20,26.07Z"/><path class="cls-7" d="M22.09,13.43a21.42,21.42,0,0,1,19.82,0A19.07,19.07,0,0,1,44,14.66"/><line class="cls-7" x1="44" y1="26.07" x2="32" y2="19.15"/><line class="cls-7" x1="20" y1="39.93" x2="32" y2="46.85"/><path class="cls-7" d="M41,52a21.55,21.55,0,0,1-18,0,22.93,22.93,0,0,1-3-1.7"/><path class="cls-7" d="M20,26.07V50.34A21.46,21.46,0,0,1,10.6,34.5a19,19,0,0,1-.1-2q0-.48,0-1"/><path class="cls-7" d="M44,39.93V14.66a21.46,21.46,0,0,1,9.47,16.88q0,.48,0,1a19,19,0,0,1-.1,2"/><path class="cls-7" d="M32,19.15,20,26.07l-9.47,5.47A21.46,21.46,0,0,1,20,14.66a19.07,19.07,0,0,1,2.09-1.23Z"/><path class="cls-7" d="M53.4,34.5A21.46,21.46,0,0,1,44,50.34,22.93,22.93,0,0,1,41,52l-9-5.19,12-6.92Z"/></svg>